# xmcd CD Database Entry
#
# Track frame offsets:
# 150
# 12403
# 35081
# 53379
# 68002
# 86690
# 118133
# 137907
# 178898
#
# Disc length: 3044 seconds
#
# Revision: 1
# Processed by: cddbd v1.4PL0 Copyright (c) Steve Scherf et al.
# Submitted via: tcd 2.0b
#
DISCID=7b0be209
DTITLE=Neil Young - On the Beach
DYEAR=1900
DGENRE=
TTITLE0=Piste 1
TTITLE1=Piste 2
TTITLE2=Piste 3
TTITLE3=Piste 4
TTITLE4=Piste 5
TTITLE5=Piste 6
TTITLE6=Piste 7
TTITLE7=Piste 8
TTITLE8=Piste 9
EXTD=
EXTT0=
EXTT1=
EXTT2=
EXTT3=
EXTT4=
EXTT5=
EXTT6=
EXTT7=
EXTT8=
PLAYORDER=
